<svg xmlns="http://www.w3.org/2000/svg" width="400" height="400" viewBox="0 0 400 400">
  <defs>
    <pattern id="p" width="400" height="400" patternUnits="userSpaceOnUse">
      <rect width="400" height="400" fill="#efeae2"/>
      <g fill="none" stroke="#c5b9a8" stroke-width="1.2" opacity="0.45">
        <circle cx="40" cy="50" r="12"/>
        <path d="M95 35h18v18h-18z"/>
        <path d="M160 42c8 0 14 6 14 14s-6 14-14 14"/>
        <path d="M230 38l10 16-10 16-10-16z"/>
        <path d="M300 45h20M310 35v20"/>
        <path d="M360 55c0-6 5-10 10-10"/>
        <path d="M55 130c6-10 18-10 24 0l-12 20z"/>
        <rect x="120" y="115" width="22" height="28" rx="4"/>
        <path d="M200 125h24M212 113v24"/>
        <path d="M280 118a14 14 0 1 1 0 28"/>
        <path d="M350 130l14 8-14 8-14-8z"/>
        <path d="M30 220h28v16h-28z"/>
        <circle cx="110" cy="228" r="14"/>
        <path d="M175 215c10 0 18 8 18 18"/>
        <path d="M255 220l12-18 12 18z"/>
        <path d="M330 218c8 6 8 16 0 22"/>
        <path d="M45 310a12 12 0 1 1 24 0"/>
        <path d="M130 300h26v26h-26z"/>
        <path d="M210 308c0-8 12-8 12 0v16h-12z"/>
        <path d="M290 305l16 10-16 10-16-10z"/>
        <path d="M360 315h18M369 306v18"/>
      </g>
    </pattern>
  </defs>
  <rect width="400" height="400" fill="url(#p)"/>
</svg>
